<svg xmlns="http://www.w3.org/2000/svg" xmlns:xlink="http://www.w3.org/1999/xlink" version="1.1" x="0" y="0" viewBox="5.5 5 89 90" enable-background="new 0 0 100 100" xml:space="preserve" height="189.5999426217975" width="187.49327659266643" class="icon-icon-0" data-fill-palette-color="accent" id="icon-0">
	<path d="M92.46 29.21c1.28-1.74 2.04-3.88 2.04-6.2 0-0.13-0.01-0.27-0.04-0.4l-0.01-0.04-1.99-9.96C92.27 11.67 91.45 11 90.5 11h-80c-0.88 0-1.66 0.58-1.92 1.43l-2.99 9.98-0.01 0.02C5.52 22.62 5.5 22.81 5.5 23c0 2.86 1.15 5.45 3 7.34v57.08c0 1.1 0.9 2 2 2s2-0.9 2-2V32.9c1.09 0.39 2.27 0.6 3.5 0.6 3.5 0 6.6-1.72 8.5-4.35 1.9 2.63 5 4.35 8.5 4.35s6.6-1.72 8.5-4.35c1.9 2.63 5 4.35 8.5 4.35s6.6-1.72 8.5-4.35c1.9 2.63 5 4.35 8.5 4.35s6.6-1.72 8.5-4.35c1.9 2.63 5 4.35 8.5 4.35 1.61 0 3.14-0.36 4.5-1.02v54.94c0 1.1 0.9 2 2 2s2-0.9 2-2v-57.8c0-0.14-0.01-0.27-0.04-0.4C92.46 29.21 92.46 29.21 92.46 29.21zM84 29.5c-3.58 0-6.5-2.92-6.5-6.5 0-1.1-0.9-2-2-2s-2 0.9-2 2c0 3.58-2.92 6.5-6.5 6.5s-6.5-2.92-6.5-6.5c0-1.1-0.9-2-2-2s-2 0.9-2 2c0 3.58-2.92 6.5-6.5 6.5s-6.5-2.92-6.5-6.5c0-1.1-0.9-2-2-2s-2 0.9-2 2c0 3.58-2.92 6.5-6.5 6.5s-6.5-2.92-6.5-6.5c0-1.1-0.9-2-2-2s-2 0.9-2 2c0 3.58-2.92 6.5-6.5 6.5-3.49 0-6.36-2.78-6.49-6.24L11.99 15h76.87l1.63 8.16C90.41 26.67 87.53 29.5 84 29.5zM92.5 25.5M75.5 25.5M92.5 25.5M7.5 25.5M88.5 9h-76c-1.104 0-2-0.896-2-2s0.896-2 2-2h76c1.104 0 2 0.896 2 2S89.604 9 88.5 9zM92.5 95h-85c-1.104 0-2-0.896-2-2s0.896-2 2-2h85c1.104 0 2 0.896 2 2S93.604 95 92.5 95zM38.5 87.208h-20c-1.104 0-2-0.896-2-2v-42c0-1.104 0.896-2 2-2h20c1.104 0 2 0.896 2 2v42C40.5 86.312 39.604 87.208 38.5 87.208zM20.5 83.208h16v-38h-16V83.208zM82.5 87.208h-36c-1.104 0-2-0.896-2-2v-42c0-1.104 0.896-2 2-2h36c1.104 0 2 0.896 2 2v42C84.5 86.312 83.604 87.208 82.5 87.208zM48.5 83.208h32v-38h-32V83.208zM33.75 66.208c0 1.105-0.895 2-2 2-1.105 0-2-0.895-2-2s0.895-2 2-2C32.855 64.208 33.75 65.104 33.75 66.208zM58.539 68.669c-0.512 0-1.023-0.195-1.414-0.586-0.781-0.781-0.781-2.048 0-2.828l4.922-4.921c0.781-0.781 2.047-0.781 2.828 0s0.781 2.048 0 2.828l-4.922 4.921C59.562 68.474 59.051 68.669 58.539 68.669zM65.539 68.669c-0.512 0-1.023-0.195-1.414-0.586-0.781-0.781-0.781-2.048 0-2.828l4.922-4.921c0.781-0.781 2.047-0.781 2.828 0s0.781 2.048 0 2.828l-4.922 4.921C66.562 68.474 66.051 68.669 65.539 68.669z" fill="#49beb7" data-fill-palette-color="accent">
	</path>
</svg>
